<mxfile host="Electron" modified="2023-10-25T22:04:39.277Z" agent="Mozilla/5.0 (Windows NT 10.0; Win64; x64) AppleWebKit/537.36 (KHTML, like Gecko) draw.io/22.0.2 Chrome/114.0.5735.289 Electron/25.8.4 Safari/537.36" etag="UBxd9U7y_rBMMxmJBtW1" version="22.0.2" type="device" pages="3">
  <diagram id="oY38kdm5o83EHuReV2T8" name="user.created">
    <mxGraphModel dx="446" dy="1683" grid="1" gridSize="10" guides="1" tooltips="1" connect="1" arrows="1" fold="1" page="1" pageScale="1" pageWidth="980" pageHeight="1390" math="0" shadow="0">
      <root>
        <mxCell id="0" />
        <mxCell id="1" parent="0" />
        <mxCell id="sdEwPJp4zkoKklKMmfEP-1" style="edgeStyle=none;curved=1;rounded=0;orthogonalLoop=1;jettySize=auto;html=1;fontSize=12;startSize=8;endSize=8;fontFamily=Helvetica;" parent="1" source="sdEwPJp4zkoKklKMmfEP-2" edge="1">
          <mxGeometry relative="1" as="geometry">
            <mxPoint x="340" y="-1090" as="targetPoint" />
          </mxGeometry>
        </mxCell>
        <mxCell id="sdEwPJp4zkoKklKMmfEP-2" value="Project" style="rounded=0;whiteSpace=wrap;html=1;fontFamily=Helvetica;" parent="1" vertex="1">
          <mxGeometry x="280" y="-1370" width="120" height="40" as="geometry" />
        </mxCell>
        <mxCell id="sdEwPJp4zkoKklKMmfEP-3" style="edgeStyle=none;curved=1;rounded=0;orthogonalLoop=1;jettySize=auto;html=1;fontSize=12;startSize=8;endSize=8;fontFamily=Helvetica;" parent="1" source="sdEwPJp4zkoKklKMmfEP-4" edge="1">
          <mxGeometry relative="1" as="geometry">
            <mxPoint x="550" y="-1090" as="targetPoint" />
          </mxGeometry>
        </mxCell>
        <mxCell id="sdEwPJp4zkoKklKMmfEP-4" value="Activity" style="rounded=0;whiteSpace=wrap;html=1;fontFamily=Helvetica;" parent="1" vertex="1">
          <mxGeometry x="490" y="-1370" width="120" height="40" as="geometry" />
        </mxCell>
        <mxCell id="LEW-G3g9cezNZrhg7D1--3" value="" style="group" parent="1" vertex="1" connectable="0">
          <mxGeometry x="540" y="-1290" width="138" height="70" as="geometry" />
        </mxCell>
        <mxCell id="LEW-G3g9cezNZrhg7D1--1" value="2" style="rounded=0;whiteSpace=wrap;html=1;fontSize=16;fontFamily=Helvetica;verticalAlign=middle;" parent="LEW-G3g9cezNZrhg7D1--3" vertex="1">
          <mxGeometry width="20" height="70" as="geometry" />
        </mxCell>
        <mxCell id="LEW-G3g9cezNZrhg7D1--2" value="save in project_activities with original timestamp" style="text;html=1;fillColor=none;align=left;verticalAlign=middle;whiteSpace=wrap;rounded=0;fontSize=12;fontFamily=Helvetica;spacingLeft=4;" parent="LEW-G3g9cezNZrhg7D1--3" vertex="1">
          <mxGeometry x="20" width="118" height="70" as="geometry" />
        </mxCell>
        <mxCell id="-xzCKRivMfdFnWui1aVe-1" value="" style="group;fillColor=#cdeb8b;strokeColor=#36393d;" parent="1" vertex="1" connectable="0">
          <mxGeometry x="330" y="-1310" width="138" height="20" as="geometry" />
        </mxCell>
        <mxCell id="-xzCKRivMfdFnWui1aVe-2" value="1" style="rounded=0;whiteSpace=wrap;html=1;fontSize=16;fontFamily=Helvetica;verticalAlign=middle;" parent="-xzCKRivMfdFnWui1aVe-1" vertex="1">
          <mxGeometry width="20" height="20" as="geometry" />
        </mxCell>
        <mxCell id="-xzCKRivMfdFnWui1aVe-3" value="project.created" style="text;html=1;fillColor=#008a00;align=left;verticalAlign=middle;whiteSpace=wrap;rounded=0;fontSize=12;fontFamily=Helvetica;spacingLeft=4;fontColor=#ffffff;strokeColor=#005700;" parent="-xzCKRivMfdFnWui1aVe-1" vertex="1">
          <mxGeometry x="20" width="118" height="20" as="geometry" />
        </mxCell>
        <mxCell id="-xzCKRivMfdFnWui1aVe-6" style="edgeStyle=none;curved=1;rounded=0;orthogonalLoop=1;jettySize=auto;html=1;exitX=0;exitY=1;exitDx=0;exitDy=0;entryX=0;entryY=0;entryDx=0;entryDy=0;fontSize=12;startSize=8;endSize=8;" parent="1" source="-xzCKRivMfdFnWui1aVe-3" target="LEW-G3g9cezNZrhg7D1--1" edge="1">
          <mxGeometry relative="1" as="geometry" />
        </mxCell>
        <mxCell id="GAK2TB4gzdmpYFB27-rb-1" value="" style="group;fillColor=#cdeb8b;strokeColor=#36393d;" vertex="1" connectable="0" parent="1">
          <mxGeometry x="330" y="-1290" width="138" height="20" as="geometry" />
        </mxCell>
        <mxCell id="GAK2TB4gzdmpYFB27-rb-2" value="1" style="rounded=0;whiteSpace=wrap;html=1;fontSize=16;fontFamily=Helvetica;verticalAlign=middle;" vertex="1" parent="GAK2TB4gzdmpYFB27-rb-1">
          <mxGeometry width="20" height="20" as="geometry" />
        </mxCell>
        <mxCell id="GAK2TB4gzdmpYFB27-rb-3" value="project.updated" style="text;html=1;fillColor=#008a00;align=left;verticalAlign=middle;whiteSpace=wrap;rounded=0;fontSize=12;fontFamily=Helvetica;spacingLeft=4;fontColor=#ffffff;strokeColor=#005700;" vertex="1" parent="GAK2TB4gzdmpYFB27-rb-1">
          <mxGeometry x="20" width="118" height="20" as="geometry" />
        </mxCell>
        <mxCell id="GAK2TB4gzdmpYFB27-rb-4" value="" style="group;fillColor=#cdeb8b;strokeColor=#36393d;" vertex="1" connectable="0" parent="1">
          <mxGeometry x="330" y="-1270" width="150" height="20" as="geometry" />
        </mxCell>
        <mxCell id="GAK2TB4gzdmpYFB27-rb-5" value="1" style="rounded=0;whiteSpace=wrap;html=1;fontSize=16;fontFamily=Helvetica;verticalAlign=middle;" vertex="1" parent="GAK2TB4gzdmpYFB27-rb-4">
          <mxGeometry width="20" height="20" as="geometry" />
        </mxCell>
        <mxCell id="GAK2TB4gzdmpYFB27-rb-6" value="project.member-added" style="text;html=1;fillColor=#008a00;align=left;verticalAlign=middle;whiteSpace=wrap;rounded=0;fontSize=12;fontFamily=Helvetica;spacingLeft=4;fontColor=#ffffff;strokeColor=#005700;" vertex="1" parent="GAK2TB4gzdmpYFB27-rb-4">
          <mxGeometry x="20" width="130" height="20" as="geometry" />
        </mxCell>
      </root>
    </mxGraphModel>
  </diagram>
  <diagram id="cDLIAaBjinaRB8GPLYyi" name="/workspaces (post)">
    <mxGraphModel dx="794" dy="1696" grid="1" gridSize="10" guides="1" tooltips="1" connect="1" arrows="1" fold="1" page="1" pageScale="1" pageWidth="827" pageHeight="1169" math="0" shadow="0">
      <root>
        <mxCell id="0" />
        <mxCell id="1" parent="0" />
        <mxCell id="7JnlgB1tNphu0dHaSalx-1" style="edgeStyle=none;curved=1;rounded=0;orthogonalLoop=1;jettySize=auto;html=1;fontSize=12;startSize=8;endSize=8;fontFamily=Helvetica;" parent="1" source="7JnlgB1tNphu0dHaSalx-2" edge="1">
          <mxGeometry relative="1" as="geometry">
            <mxPoint x="80" y="-880" as="targetPoint" />
          </mxGeometry>
        </mxCell>
        <mxCell id="7JnlgB1tNphu0dHaSalx-2" value="User" style="rounded=0;whiteSpace=wrap;html=1;fontFamily=Helvetica;" parent="1" vertex="1">
          <mxGeometry x="20" y="-1160" width="120" height="40" as="geometry" />
        </mxCell>
        <mxCell id="7JnlgB1tNphu0dHaSalx-3" style="edgeStyle=none;curved=1;rounded=0;orthogonalLoop=1;jettySize=auto;html=1;fontSize=12;startSize=8;endSize=8;fontFamily=Helvetica;" parent="1" source="7JnlgB1tNphu0dHaSalx-4" edge="1">
          <mxGeometry relative="1" as="geometry">
            <mxPoint x="400" y="-880" as="targetPoint" />
          </mxGeometry>
        </mxCell>
        <mxCell id="7JnlgB1tNphu0dHaSalx-4" value="Workspace" style="rounded=0;whiteSpace=wrap;html=1;fontFamily=Helvetica;" parent="1" vertex="1">
          <mxGeometry x="340" y="-1160" width="120" height="40" as="geometry" />
        </mxCell>
      </root>
    </mxGraphModel>
  </diagram>
  <diagram id="p9YtzqTpsCguL2lKq-Le" name="Invite workpace member">
    <mxGraphModel dx="1180" dy="2112" grid="1" gridSize="10" guides="1" tooltips="1" connect="1" arrows="1" fold="1" page="0" pageScale="1" pageWidth="827" pageHeight="1169" math="0" shadow="0">
      <root>
        <mxCell id="0" />
        <mxCell id="1" parent="0" />
        <mxCell id="JPDjslHWpKQ4i2nxVlJD-64" style="edgeStyle=none;curved=1;rounded=0;orthogonalLoop=1;jettySize=auto;html=1;fontSize=12;startSize=8;endSize=8;fontFamily=Helvetica;verticalAlign=middle;" parent="1" source="JPDjslHWpKQ4i2nxVlJD-65" edge="1">
          <mxGeometry relative="1" as="geometry">
            <mxPoint x="90" y="-770" as="targetPoint" />
          </mxGeometry>
        </mxCell>
        <mxCell id="JPDjslHWpKQ4i2nxVlJD-65" value="Client" style="rounded=0;whiteSpace=wrap;html=1;fontFamily=Helvetica;verticalAlign=middle;fontSize=12;" parent="1" vertex="1">
          <mxGeometry x="30" y="-1320" width="120" height="40" as="geometry" />
        </mxCell>
        <mxCell id="JPDjslHWpKQ4i2nxVlJD-66" style="edgeStyle=none;curved=1;rounded=0;orthogonalLoop=1;jettySize=auto;html=1;fontSize=12;startSize=8;endSize=8;fontFamily=Helvetica;verticalAlign=middle;" parent="1" source="JPDjslHWpKQ4i2nxVlJD-67" edge="1">
          <mxGeometry relative="1" as="geometry">
            <mxPoint x="282" y="-770" as="targetPoint" />
          </mxGeometry>
        </mxCell>
        <mxCell id="JPDjslHWpKQ4i2nxVlJD-67" value="Workspace" style="rounded=0;whiteSpace=wrap;html=1;fontFamily=Helvetica;verticalAlign=middle;fontSize=12;" parent="1" vertex="1">
          <mxGeometry x="222" y="-1320" width="120" height="40" as="geometry" />
        </mxCell>
        <mxCell id="JPDjslHWpKQ4i2nxVlJD-68" style="edgeStyle=none;curved=1;rounded=0;orthogonalLoop=1;jettySize=auto;html=1;fontSize=12;startSize=8;endSize=8;fontFamily=Helvetica;verticalAlign=middle;" parent="1" source="JPDjslHWpKQ4i2nxVlJD-69" edge="1">
          <mxGeometry relative="1" as="geometry">
            <mxPoint x="518" y="-770" as="targetPoint" />
          </mxGeometry>
        </mxCell>
        <mxCell id="JPDjslHWpKQ4i2nxVlJD-69" value="Email" style="rounded=0;whiteSpace=wrap;html=1;fontFamily=Helvetica;verticalAlign=middle;fontSize=12;" parent="1" vertex="1">
          <mxGeometry x="460" y="-1320" width="120" height="40" as="geometry" />
        </mxCell>
        <mxCell id="JPDjslHWpKQ4i2nxVlJD-71" style="edgeStyle=none;curved=1;rounded=0;orthogonalLoop=1;jettySize=auto;html=1;entryX=0;entryY=0.5;entryDx=0;entryDy=0;fontSize=12;startSize=8;endSize=8;fontFamily=Helvetica;verticalAlign=middle;" parent="1" edge="1">
          <mxGeometry relative="1" as="geometry">
            <mxPoint x="271.9999999999998" y="-1030" as="sourcePoint" />
            <mxPoint x="271.9999999999998" y="-1030" as="targetPoint" />
          </mxGeometry>
        </mxCell>
        <mxCell id="JPDjslHWpKQ4i2nxVlJD-74" style="edgeStyle=none;curved=1;rounded=0;orthogonalLoop=1;jettySize=auto;html=1;exitX=0.5;exitY=1;exitDx=0;exitDy=0;entryX=0;entryY=0;entryDx=0;entryDy=0;fontSize=12;startSize=8;endSize=8;fontFamily=Helvetica;verticalAlign=middle;" parent="1" target="Pa0Kq9crktuRV41o-tmP-2" edge="1">
          <mxGeometry relative="1" as="geometry">
            <mxPoint x="447" y="-1170" as="targetPoint" />
            <mxPoint x="282" y="-1170" as="sourcePoint" />
          </mxGeometry>
        </mxCell>
        <mxCell id="JPDjslHWpKQ4i2nxVlJD-78" style="edgeStyle=none;curved=1;rounded=0;orthogonalLoop=1;jettySize=auto;html=1;fontSize=12;startSize=8;endSize=8;fontFamily=Helvetica;verticalAlign=middle;" parent="1" source="JPDjslHWpKQ4i2nxVlJD-79" edge="1">
          <mxGeometry relative="1" as="geometry">
            <mxPoint x="-100" y="-770" as="targetPoint" />
          </mxGeometry>
        </mxCell>
        <mxCell id="JPDjslHWpKQ4i2nxVlJD-79" value="Gmail" style="rounded=0;whiteSpace=wrap;html=1;fontFamily=Helvetica;verticalAlign=middle;fontSize=12;" parent="1" vertex="1">
          <mxGeometry x="-160" y="-1320" width="120" height="40" as="geometry" />
        </mxCell>
        <mxCell id="JPDjslHWpKQ4i2nxVlJD-80" style="edgeStyle=none;curved=1;rounded=0;orthogonalLoop=1;jettySize=auto;html=1;exitX=1;exitY=1;exitDx=0;exitDy=0;fontSize=12;startSize=8;endSize=8;entryX=0;entryY=0;entryDx=0;entryDy=0;fontFamily=Helvetica;verticalAlign=middle;exitPerimeter=0;" parent="1" source="JPDjslHWpKQ4i2nxVlJD-116" target="JPDjslHWpKQ4i2nxVlJD-107" edge="1">
          <mxGeometry relative="1" as="geometry">
            <mxPoint x="270" y="-920" as="targetPoint" />
            <mxPoint x="-90" y="-960" as="sourcePoint" />
          </mxGeometry>
        </mxCell>
        <mxCell id="JPDjslHWpKQ4i2nxVlJD-81" style="edgeStyle=none;curved=1;rounded=0;orthogonalLoop=1;jettySize=auto;html=1;exitX=0.5;exitY=1;exitDx=0;exitDy=0;fontSize=12;startSize=8;endSize=8;fontFamily=Helvetica;verticalAlign=middle;" parent="1" edge="1">
          <mxGeometry relative="1" as="geometry">
            <mxPoint x="520" y="-850" as="targetPoint" />
            <mxPoint x="282" y="-850.3800000000001" as="sourcePoint" />
          </mxGeometry>
        </mxCell>
        <mxCell id="JPDjslHWpKQ4i2nxVlJD-82" value="email, workspaceRole" style="text;html=1;strokeColor=none;fillColor=none;align=right;verticalAlign=middle;whiteSpace=wrap;rounded=0;fontSize=12;fontFamily=Helvetica;spacingRight=4;" parent="1" vertex="1">
          <mxGeometry x="-40" y="-1270" width="120" height="40" as="geometry" />
        </mxCell>
        <mxCell id="JPDjslHWpKQ4i2nxVlJD-118" value="" style="edgeStyle=none;curved=1;rounded=0;orthogonalLoop=1;jettySize=auto;html=1;fontSize=12;startSize=8;endSize=8;" parent="1" source="JPDjslHWpKQ4i2nxVlJD-83" target="JPDjslHWpKQ4i2nxVlJD-82" edge="1">
          <mxGeometry relative="1" as="geometry" />
        </mxCell>
        <mxCell id="JPDjslHWpKQ4i2nxVlJD-119" style="edgeStyle=none;curved=1;rounded=0;orthogonalLoop=1;jettySize=auto;html=1;exitX=1;exitY=1;exitDx=0;exitDy=0;fontSize=12;startSize=8;endSize=8;entryX=0;entryY=0;entryDx=0;entryDy=0;" parent="1" source="JPDjslHWpKQ4i2nxVlJD-83" target="JPDjslHWpKQ4i2nxVlJD-122" edge="1">
          <mxGeometry relative="1" as="geometry">
            <mxPoint x="210" y="-1190" as="targetPoint" />
          </mxGeometry>
        </mxCell>
        <mxCell id="JPDjslHWpKQ4i2nxVlJD-83" value="1" style="rounded=0;whiteSpace=wrap;html=1;fontSize=12;fontFamily=Helvetica;verticalAlign=middle;" parent="1" vertex="1">
          <mxGeometry x="80" y="-1270" width="20" height="40" as="geometry" />
        </mxCell>
        <mxCell id="JPDjslHWpKQ4i2nxVlJD-106" value="" style="group;fontSize=12;" parent="1" vertex="1" connectable="0">
          <mxGeometry x="272" y="-940" width="165" height="20" as="geometry" />
        </mxCell>
        <mxCell id="JPDjslHWpKQ4i2nxVlJD-107" value="9" style="rounded=0;whiteSpace=wrap;html=1;fontSize=12;fontFamily=Helvetica;verticalAlign=middle;" parent="JPDjslHWpKQ4i2nxVlJD-106" vertex="1">
          <mxGeometry y="0.37000000000000455" width="20" height="19.25" as="geometry" />
        </mxCell>
        <mxCell id="JPDjslHWpKQ4i2nxVlJD-108" value="verify token" style="text;html=1;strokeColor=none;fillColor=none;align=left;verticalAlign=middle;whiteSpace=wrap;rounded=0;fontSize=12;fontFamily=Helvetica;spacingLeft=4;" parent="JPDjslHWpKQ4i2nxVlJD-106" vertex="1">
          <mxGeometry x="20" width="145" height="20" as="geometry" />
        </mxCell>
        <mxCell id="JPDjslHWpKQ4i2nxVlJD-109" value="" style="group;fontSize=12;" parent="1" vertex="1" connectable="0">
          <mxGeometry x="272" y="-910.38" width="165" height="30" as="geometry" />
        </mxCell>
        <mxCell id="JPDjslHWpKQ4i2nxVlJD-110" value="10" style="rounded=0;whiteSpace=wrap;html=1;fontSize=12;fontFamily=Helvetica;verticalAlign=middle;" parent="JPDjslHWpKQ4i2nxVlJD-109" vertex="1">
          <mxGeometry width="20" height="30" as="geometry" />
        </mxCell>
        <mxCell id="JPDjslHWpKQ4i2nxVlJD-111" value="set status to: active" style="text;html=1;strokeColor=none;fillColor=none;align=left;verticalAlign=middle;whiteSpace=wrap;rounded=0;fontSize=12;fontFamily=Helvetica;spacingLeft=4;" parent="JPDjslHWpKQ4i2nxVlJD-109" vertex="1">
          <mxGeometry x="20" width="145" height="30" as="geometry" />
        </mxCell>
        <mxCell id="JPDjslHWpKQ4i2nxVlJD-115" value="" style="group;fontSize=12;" parent="1" vertex="1" connectable="0">
          <mxGeometry x="-110" y="-1090" width="165" height="150" as="geometry" />
        </mxCell>
        <mxCell id="JPDjslHWpKQ4i2nxVlJD-116" value="8" style="rounded=0;whiteSpace=wrap;html=1;fontSize=12;fontFamily=Helvetica;verticalAlign=middle;" parent="JPDjslHWpKQ4i2nxVlJD-115" vertex="1">
          <mxGeometry width="20" height="150" as="geometry" />
        </mxCell>
        <mxCell id="JPDjslHWpKQ4i2nxVlJD-117" value="clicks link" style="text;html=1;strokeColor=none;fillColor=none;align=left;verticalAlign=middle;whiteSpace=wrap;rounded=0;fontSize=12;fontFamily=Helvetica;spacingLeft=4;" parent="JPDjslHWpKQ4i2nxVlJD-115" vertex="1">
          <mxGeometry x="20" width="145" height="150" as="geometry" />
        </mxCell>
        <mxCell id="JPDjslHWpKQ4i2nxVlJD-128" value="" style="group;fontSize=12;" parent="1" vertex="1" connectable="0">
          <mxGeometry x="272" y="-1230" width="165" height="30" as="geometry" />
        </mxCell>
        <mxCell id="JPDjslHWpKQ4i2nxVlJD-129" value="" style="group;fontSize=12;" parent="JPDjslHWpKQ4i2nxVlJD-128" vertex="1" connectable="0">
          <mxGeometry width="165" height="30" as="geometry" />
        </mxCell>
        <mxCell id="JPDjslHWpKQ4i2nxVlJD-122" value="2" style="rounded=0;whiteSpace=wrap;html=1;fontSize=12;fontFamily=Helvetica;verticalAlign=middle;" parent="JPDjslHWpKQ4i2nxVlJD-129" vertex="1">
          <mxGeometry width="20" height="30" as="geometry" />
        </mxCell>
        <mxCell id="JPDjslHWpKQ4i2nxVlJD-126" value="Create a workspace member invite" style="text;html=1;strokeColor=none;fillColor=none;align=left;verticalAlign=middle;whiteSpace=wrap;rounded=0;fontSize=12;fontFamily=Helvetica;spacingLeft=4;" parent="JPDjslHWpKQ4i2nxVlJD-129" vertex="1">
          <mxGeometry x="20" width="145" height="30" as="geometry" />
        </mxCell>
        <mxCell id="Pa0Kq9crktuRV41o-tmP-1" value="" style="group;fontSize=12;" parent="1" vertex="1" connectable="0">
          <mxGeometry x="505" y="-1170" width="193" height="30" as="geometry" />
        </mxCell>
        <mxCell id="n-r-ID6bF0tpL5BQhkv0-32" value="" style="group" parent="Pa0Kq9crktuRV41o-tmP-1" vertex="1" connectable="0">
          <mxGeometry width="193" height="30" as="geometry" />
        </mxCell>
        <mxCell id="Pa0Kq9crktuRV41o-tmP-2" value="4.1" style="rounded=0;whiteSpace=wrap;html=1;fontSize=12;fontFamily=Helvetica;verticalAlign=middle;" parent="n-r-ID6bF0tpL5BQhkv0-32" vertex="1">
          <mxGeometry width="27.97101449275362" height="30" as="geometry" />
        </mxCell>
        <mxCell id="Pa0Kq9crktuRV41o-tmP-3" value="create invite token and save to database" style="text;html=1;fillColor=none;align=left;verticalAlign=middle;whiteSpace=wrap;rounded=0;fontSize=12;fontFamily=Helvetica;spacingLeft=4;" parent="n-r-ID6bF0tpL5BQhkv0-32" vertex="1">
          <mxGeometry x="27.97101449275362" width="165.02898550724638" height="30" as="geometry" />
        </mxCell>
        <mxCell id="n-r-ID6bF0tpL5BQhkv0-27" value="" style="group" parent="1" vertex="1" connectable="0">
          <mxGeometry x="272" y="-1190" width="168" height="20" as="geometry" />
        </mxCell>
        <mxCell id="4FF2OMNv6KTieK2rAvGm-1" value="workspace.invite-created" style="group;fillColor=#008a00;strokeColor=#005700;container=0;verticalAlign=middle;fontColor=#ffffff;fontSize=12;" parent="n-r-ID6bF0tpL5BQhkv0-27" vertex="1" connectable="0">
          <mxGeometry x="20" width="148" height="20" as="geometry" />
        </mxCell>
        <mxCell id="4FF2OMNv6KTieK2rAvGm-2" value="4" style="rounded=0;whiteSpace=wrap;html=1;fontSize=12;fontFamily=Helvetica;verticalAlign=middle;" parent="n-r-ID6bF0tpL5BQhkv0-27" vertex="1">
          <mxGeometry width="20" height="20" as="geometry" />
        </mxCell>
        <mxCell id="n-r-ID6bF0tpL5BQhkv0-34" value="" style="group" parent="1" vertex="1" connectable="0">
          <mxGeometry x="505" y="-1120" width="193" height="30" as="geometry" />
        </mxCell>
        <mxCell id="n-r-ID6bF0tpL5BQhkv0-35" value="4.2" style="rounded=0;whiteSpace=wrap;html=1;fontSize=12;fontFamily=Helvetica;verticalAlign=middle;" parent="n-r-ID6bF0tpL5BQhkv0-34" vertex="1">
          <mxGeometry width="27.97101449275362" height="30" as="geometry" />
        </mxCell>
        <mxCell id="n-r-ID6bF0tpL5BQhkv0-36" value="send email to SMTP server" style="text;html=1;fillColor=none;align=left;verticalAlign=middle;whiteSpace=wrap;rounded=0;fontSize=12;fontFamily=Helvetica;spacingLeft=4;" parent="n-r-ID6bF0tpL5BQhkv0-34" vertex="1">
          <mxGeometry x="27.97101449275362" width="165.02898550724638" height="30" as="geometry" />
        </mxCell>
        <mxCell id="KROkpe-KQ8CVi7cAUEaB-1" style="edgeStyle=none;curved=1;rounded=0;orthogonalLoop=1;jettySize=auto;html=1;exitX=0;exitY=1;exitDx=0;exitDy=0;entryX=0;entryY=0;entryDx=0;entryDy=0;fontSize=12;startSize=8;endSize=8;" parent="1" source="n-r-ID6bF0tpL5BQhkv0-35" target="JPDjslHWpKQ4i2nxVlJD-117" edge="1">
          <mxGeometry relative="1" as="geometry" />
        </mxCell>
        <mxCell id="r6T1NeOKcUcWqSTTedG1-21" value="workspace.member.updated" style="group;fillColor=#008a00;strokeColor=#005700;container=0;verticalAlign=middle;fontColor=#ffffff;fontSize=12;" parent="1" vertex="1" connectable="0">
          <mxGeometry x="292" y="-870" width="158" height="20" as="geometry" />
        </mxCell>
        <mxCell id="r6T1NeOKcUcWqSTTedG1-22" value="4" style="rounded=0;whiteSpace=wrap;html=1;fontSize=12;fontFamily=Helvetica;verticalAlign=middle;" parent="1" vertex="1">
          <mxGeometry x="272" y="-870" width="20" height="20" as="geometry" />
        </mxCell>
      </root>
    </mxGraphModel>
  </diagram>
</mxfile>
